<svg xmlns="http://www.w3.org/2000/svg" viewBox="0 0 512 512" style="width:30px;height:30px;" class="wprequal-icon"><path d="M405.7 472.7H106.3c-36.8 0-66.9-30.1-66.9-66.9V106.3c0-36.8 30.1-66.9 66.9-66.9h299.5c36.8 0 66.9 30.1 66.9 66.9v299.5c0 36.7-30.2 66.9-67 66.9z" fill="#fff"/><linearGradient id="a" gradientUnits="userSpaceOnUse" x1="296.655" y1="210.696" x2="296.655" y2="445.9"><stop offset=".005" stop-color="#7f7f7f"/><stop offset=".512" stop-color="#656668"/></linearGradient><path d="M174.4 445.7v-2.4-182c0-1.5.5-2.6 1.6-3.6 16.2-15 32.3-30 48.5-45 .6-.5 1.2-1 2.2-2v2.7c0 60.3.1 120.5.1 180.8 0 4.1-.2 3.4 3.4 3.4h133.5c2.9 0 2.9 0 2.9-2.9V261.2c0-1.4.3-2.5 1.4-3.5 16.4-15.2 32.8-30.5 49.2-45.7.4-.4.9-.8 1.5-1.4.1.7.2 1.2.2 1.6V396c0 .9-.5 2-1.2 2.7-16.6 15.3-33.2 30.6-49.9 45.8-.9.8-2.5 1.3-3.7 1.3-40.3.1-80.5.1-120.8 0-22.1 0-44.2-.1-66.3-.2-.8.1-1.6.1-2.6.1z" fill="url(#a)"/><path d="M93.1 209.1c2.1-2.5 4.4-5.5 7-8.2 2.7-2.7 5.6-5.2 8.4-7.8 5.7-5.4 11.4-10.9 17.1-16.3 6.6-6.3 13.3-12.7 20-19 6.4-6.1 12.9-12.1 19.3-18.2 6.6-6.3 13.3-12.5 19.9-18.8 6.4-6.1 12.8-12.2 19.3-18.3 6.7-6.4 13.4-12.7 20.2-19.1 6.1-5.7 12.3-11.5 18.5-17.3 1 .8 2.1 1.7 3.1 2.6 5.7 5.5 11.4 11 17.2 16.5 6.5 6.2 13.1 12.4 19.6 18.5 4.4 4.2 8.8 8.3 13.2 12.5 8.7 8.3 17.5 16.5 26.2 24.8 5.8 5.5 11.6 11 17.5 16.4.4.4.8.8 1.4 1.5-17.5 16.6-35 33.2-52.6 49.8-1-.7-1.9-1.3-2.6-2-5.6-5.3-11.2-10.7-16.8-16.1-6.8-6.5-13.7-13-20.6-19.5-6.3-5.9-12.6-11.8-18.9-17.8-6.7-6.4-13.4-12.8-20.1-19.1-3.6-3.5-7.4-6.8-11-10.3-1.1-1.1-1.9-1.3-3.1-.1-5.2 5.1-10.5 10.1-15.7 15.1-6.6 6.3-13.2 12.5-19.8 18.8-6.5 6.1-13 12.2-19.5 18.4-8.7 8.3-17.4 16.6-26.2 24.8-2.6 2.5-5.3 4.9-8.1 7.3-.4.3-.9.7-1.4.7-4.1.2-8.3.2-11.5.2zm202.2 148.8c5.2-4.9 10.4-9.7 15.6-14.6 6.3-5.9 12.6-11.9 18.9-17.8 2.2-2.1 4.5-4.1 6.8-6.1 2.5-2.1 3.8-4.5 3.8-8.1-.2-44-.1-87.9-.1-131.9V177c-1.1.9-1.9 1.5-2.7 2.2-6.9 6.4-13.7 12.8-20.6 19.2-6.4 6-12.7 12-19 17.9-2.2 2.1-4.5 4.1-6.8 6.1-2.1 1.8-3.2 3.7-3.2 6.8.1 44.2.1 88.4.1 132.7v2.4c2.6-2.3 4.9-4.3 7.2-6.4z" fill="#04c443"/></svg>